<svg width="400" height="400" viewBox="0 0 400 400" fill="none" xmlns="http://www.w3.org/2000/svg">
<path d="M98.333 132.615C102.092 109.451 86.3619 87.6256 63.198 83.8663C40.0342 80.1069 18.2086 95.8374 14.4492 119.001C10.6899 142.165 26.4204 163.991 49.5842 167.75C72.7481 171.509 94.5736 155.779 98.333 132.615Z" stroke="#2D3155" stroke-width="15.7" stroke-miterlimit="10"/>
<path d="M382.92 204.72L295.06 242.5C290.67 244.1 284.44 237.87 281.16 228.76C277.97 219.57 278.76 210.87 283.16 209.27L371.02 171.49L383 204.72H382.92Z" stroke="#2D3155" stroke-width="15.7" stroke-miterlimit="10"/>
<path d="M382.92 204.72L295.06 242.5C290.67 244.1 284.44 237.87 281.16 228.76C277.97 219.57 278.76 210.87 283.16 209.27L371.02 171.49L383 204.72H382.92Z" stroke="#2D3155" stroke-width="15.7" stroke-miterlimit="10"/>
<path d="M206 376.13C289.815 376.13 357.76 308.185 357.76 224.37C357.76 140.555 289.815 72.6101 206 72.6101C122.185 72.6101 54.24 140.555 54.24 224.37C54.24 308.185 122.185 376.13 206 376.13Z" stroke="#2D3155" stroke-width="15.7" stroke-miterlimit="10"/>
<path d="M206 376.13C289.815 376.13 357.76 308.185 357.76 224.37C357.76 140.555 289.815 72.6101 206 72.6101C122.185 72.6101 54.24 140.555 54.24 224.37C54.24 308.185 122.185 376.13 206 376.13Z" fill="url(#paint0_linear_89_3707)"/>
<path d="M382.92 204.72L295.06 242.5C290.67 244.1 284.44 237.87 281.16 228.76C277.97 219.57 278.76 210.87 283.16 209.27L371.02 171.49L383 204.72H382.92Z" fill="white"/>
<path d="M382.92 204.72L295.06 242.5C290.67 244.1 284.44 237.87 281.16 228.76C277.97 219.57 278.76 210.87 283.16 209.27L371.02 171.49L383 204.72H382.92Z" fill="white"/>
<path d="M285.31 221.41L245.7 242.21L248.5 251L288.03 230.2L285.31 221.41ZM271.18 263.75L289.79 266.15L287.87 272.14L270.54 269.98L271.18 263.75ZM314.15 267.5L311.67 261.59L309.59 261.11L310.23 267.1L300.8 266.14L299.2 272.21L320.21 276.76L326.12 268.61L314.15 267.5ZM264.39 270.14L251.85 325.33L257.68 325.81L273.81 271.73L264.39 270.14Z" fill="#916C29"/>
<path d="M290.98 271.1L268.46 329.33L276.05 331.73L300.25 271.82L290.98 271.1ZM316.22 277.01L287.94 334.28L294.73 336.84L328.52 278.85L316.22 277.01Z" fill="#916C29"/>
<path d="M206 376.13C244.11 376.19 280.83 361.84 308.8 335.95L67.5801 286.75C92.1301 341.2 146.35 376.19 206.08 376.13H206Z" fill="url(#paint1_linear_89_3707)"/>
<path d="M177.32 270.14L187.3 249.69L167.17 260.39L150.8 244.49L153.6 260.46L107.11 288.34L57.99 258L59.75 267.9L91.38 291.06L117.1 296.89L157.28 281.55L161.11 303.28L171.17 282.83L193.69 286.02L177.32 270.14Z" fill="url(#paint2_linear_89_3707)"/>
<path d="M143.54 260.39L129.88 255.84M168.38 238.03L166.38 252.33M186.03 297.21L175.01 287.94M144.57 298.41L153.04 286.75" stroke="white" stroke-width="4" stroke-miterlimit="10"/>
<path d="M269.08 214.54C270.76 219.65 271.48 225.16 271.16 230.75C269.4 256.15 245.6 275.24 217.8 273.32C200.74 272.42 185.24 263.12 176.43 248.48L169 251.2C170.12 253.44 171.4 255.59 172.67 257.75C188.12 281 213.64 295.6 241.52 297.13C288.89 300.32 329.62 267.74 332.58 224.36C333.28 213.7 331.64 203.01 327.79 193.05L269.08 214.62V214.54Z" fill="url(#paint3_linear_89_3707)"/>
<path d="M164.94 268.94L48.8899 166.54L97.6899 116.54L164.94 268.94Z" fill="url(#paint4_linear_89_3707)"/>
<path d="M98.333 132.615C102.092 109.451 86.3619 87.6256 63.198 83.8663C40.0342 80.1069 18.2086 95.8374 14.4492 119.001C10.6899 142.165 26.4204 163.991 49.5842 167.75C72.7481 171.509 94.5736 155.779 98.333 132.615Z" fill="#AA1F44"/>
<path d="M23.72 150.25L27.23 146.66" stroke="white" stroke-width="4.2" stroke-miterlimit="10"/>
<path d="M34.51 139.46L74.21 99.6799" stroke="white" stroke-width="4.2" stroke-miterlimit="10" stroke-dasharray="12.79 12.79"/>
<path d="M77.8 96.09L81.39 92.5" stroke="white" stroke-width="4.2" stroke-miterlimit="10"/>
<path d="M27.8799 155.92L31.4699 152.33" stroke="white" stroke-width="4.2" stroke-miterlimit="10"/>
<path d="M38.8198 144.97L79.0798 104.71" stroke="white" stroke-width="4.2" stroke-miterlimit="10" stroke-dasharray="12.97 12.97"/>
<path d="M82.75 101.04L86.34 97.45" stroke="white" stroke-width="4.2" stroke-miterlimit="10"/>
<path opacity="0.5" d="M79.3201 90.6599C91.9901 110.42 86.2401 136.7 66.4801 149.37C52.5001 158.33 34.5901 158.33 20.6101 149.37C33.2801 169.13 59.5601 174.87 79.3201 162.21C99.0801 149.54 104.82 123.26 92.1601 103.5C88.8501 98.3399 84.4701 93.9599 79.3201 90.6599Z" fill="#701431"/>
<path d="M98.333 132.615C102.092 109.451 86.3619 87.6256 63.198 83.8663C40.0342 80.1069 18.2086 95.8374 14.4492 119.001C10.6899 142.165 26.4204 163.991 49.5842 167.75C72.7481 171.509 94.5736 155.779 98.333 132.615Z" fill="#AA1F44"/>
<path d="M23.72 150.25L27.23 146.66" stroke="white" stroke-width="4.2" stroke-miterlimit="10"/>
<path d="M34.51 139.46L74.21 99.6799" stroke="white" stroke-width="4.2" stroke-miterlimit="10" stroke-dasharray="12.79 12.79"/>
<path d="M77.8 96.09L81.39 92.5" stroke="white" stroke-width="4.2" stroke-miterlimit="10"/>
<path d="M27.8799 155.92L31.4699 152.33" stroke="white" stroke-width="4.2" stroke-miterlimit="10"/>
<path d="M38.8198 144.97L79.0798 104.71" stroke="white" stroke-width="4.2" stroke-miterlimit="10" stroke-dasharray="12.97 12.97"/>
<path d="M82.75 101.04L86.34 97.45" stroke="white" stroke-width="4.2" stroke-miterlimit="10"/>
<path opacity="0.5" d="M79.3201 90.6599C91.9901 110.42 86.2401 136.7 66.4801 149.37C52.5001 158.33 34.5901 158.33 20.6101 149.37C33.2801 169.13 59.5601 174.87 79.3201 162.21C99.0801 149.54 104.82 123.26 92.1601 103.5C88.8501 98.3399 84.4701 93.9599 79.3201 90.6599Z" fill="#701431"/>
<path d="M237.5 223.5C253.155 219.842 252.804 208.371 251 206L236 208.5C224.48 211.04 208.696 219.347 201.701 219.347C192.957 219.347 168.807 198.518 165.477 198.01C162.146 197.502 177.135 215.791 183.797 221.379C190.459 226.967 210.444 227.983 214.608 227.983C218.772 227.983 217.931 228.072 237.5 223.5Z" fill="#08060C"/>
<path d="M274.401 202.136C267.971 210.412 215.126 223.197 209.098 224.379C203.07 225.561 199.554 225.414 196.54 224.379C193.526 223.345 168.912 211.447 156.856 202.136C144.8 192.824 148.316 179.375 149.321 175.237C150.326 171.098 156.856 151.959 157.358 141.613C157.86 131.267 161.377 114.196 170.419 111.093C179.461 107.989 210.103 109.541 219.647 109.541C229.191 109.541 265.359 133.336 271.387 133.336C277.415 133.336 294.996 149.889 295.498 158.166C296.001 166.443 282.438 191.79 274.401 202.136Z" fill="url(#paint5_linear_89_3707)"/>
<path d="M298.512 161.787C298.512 165.098 295.498 167.305 293.991 167.995C294.661 164.891 296.001 158.373 296.001 157.132C296.001 155.58 287.964 144.717 284.95 142.13C281.936 139.544 273.898 135.923 271.387 136.957C268.875 137.992 253.805 127.129 247.777 126.094C241.749 125.06 218.642 116.266 200.558 112.645C182.475 109.024 173.433 113.679 165.395 118.852C157.358 124.025 159.87 143.165 157.358 144.717C154.847 146.269 151.33 139.026 150.828 135.923C150.326 132.819 146.809 136.957 137.265 128.681C127.721 120.404 148.316 108.506 154.847 107.989C161.377 107.472 157.861 106.437 161.377 101.782C164.893 97.126 180.465 72.8134 193.023 68.1578C205.582 63.5022 229.693 59.3639 253.303 68.1578C276.912 76.9517 295.498 112.645 296.001 117.3C296.503 121.956 297.508 147.303 297.508 150.924C297.508 154.545 298.512 157.649 298.512 161.787Z" fill="#A4142E"/>
<path d="M214.049 76.7522L194.012 91.5824L208.037 90.069L216.179 101.589L214.049 76.7522Z" fill="white"/>
<path d="M257.77 77.2016C265.28 79.0466 279.42 94.7848 285.552 102.423C286.418 105.486 289.622 111.196 293.646 114.193C297.67 117.19 308.133 109.267 312.365 98.9712C316.598 88.6756 311.228 75.308 305.555 63.68C299.883 52.0519 281.666 38.1839 258.273 48.1118C234.88 58.0397 248.383 74.8953 257.77 77.2016Z" fill="#08060C"/>
<path d="M272.791 63.5249C261.813 65.3192 260.582 72.9927 261.338 76.6052C266.114 81.267 276.703 91.4444 280.86 94.86C286.056 99.1294 286.486 100.648 289.963 98.8438C293.441 97.0398 297.388 82.8035 295.24 75.2118C293.091 67.62 286.513 61.282 272.791 63.5249Z" fill="#F3F4DF"/>
<path d="M160.5 75.4999C164.92 69.2925 178.151 75.4654 181.5 76.5C179.491 79.4313 173.958 84.7758 172.93 86.2629C170 90.4999 160.874 103.333 159.367 106.437C157.86 109.541 151.96 100.847 151.96 95.6742C151.96 90.5013 154.974 83.2593 160.5 75.4999Z" fill="#08060C"/>
<path d="M269.377 116.266L303.033 145.751L299.015 156.097L263.35 128.681L269.377 116.266Z" fill="#070E3B"/>
<path d="M262.345 115.749L268.875 116.266L263.349 129.198L257.321 126.094L262.345 115.749Z" fill="#2D3155"/>
<path d="M264.857 161.787C263.249 154.338 251.126 134.198 245.266 125.06C252.466 127.818 267.67 133.543 270.884 134.371C274.903 135.405 292.485 149.372 293.489 150.924C294.494 152.476 295.499 161.787 295.499 163.856C295.499 165.925 283.945 193.859 281.433 194.894C278.922 195.928 266.866 184.548 264.857 181.444C262.847 178.34 266.866 171.098 264.857 161.787Z" fill="#070E3B"/>
<path d="M259.544 143C257.944 139.8 254.211 132 252.544 128.5L248.544 126.5L252.544 132.5C257.544 142.833 267.544 164 267.544 166C267.544 168.5 265.544 181 265.544 182.5C265.544 184 279.044 194 281.044 194C283.044 194 286.044 185 286.044 183C286.044 181 272.044 169 270.044 164.5C268.044 160 261.544 147 259.544 143Z" fill="#2D3155"/>
<path d="M241.247 152.993C238.434 140.992 221.656 133.164 213.619 130.75C194.53 128.681 191.014 151.441 208.596 166.443C226.177 181.444 244.763 167.995 241.247 152.993Z" fill="#08060C"/>
<path d="M226.177 151.441C226.177 143.992 218.475 140.751 214.624 140.061C205.582 139.544 199.052 151.441 206.084 159.718C213.117 167.995 226.177 160.753 226.177 151.441Z" fill="#F5F6E9"/>
<path d="M223.637 153.212C224.038 149.487 220.12 147.004 220.12 147.004C220.12 147.004 218.412 145.349 213.59 147.004C207.562 149.073 210.576 158.902 214.092 161.488C217.609 164.075 223.134 157.867 223.637 153.212Z" fill="#17304E"/>
<path d="M144.8 164.374C146.006 162.305 153.005 151.441 156.354 146.269C155.181 152.821 152.335 166.96 150.326 171.098C147.814 176.271 148.819 188.169 149.321 191.273C149.823 194.376 147.312 192.307 142.791 184.031C138.27 175.754 143.293 166.96 144.8 164.374Z" fill="#070E3B"/>
<path d="M216.13 116.266C222.56 117.093 227.516 125.232 229.191 129.198C226.177 126.956 218.441 122.68 211.609 123.508C203.07 124.542 199.051 129.198 199.051 120.921C199.051 112.645 208.093 115.231 216.13 116.266Z" fill="#08060C"/>
<path d="M174.438 120.404C176.447 124.542 174.605 129.37 173.433 131.267C173.532 131.095 172.665 130.232 168.41 128.163C163.129 125.596 160.907 134.754 160.383 136.911L160.372 136.957C159.87 139.026 160.875 126.611 162.884 121.956C164.893 117.3 171.926 115.231 174.438 120.404Z" fill="#08060C"/>
<path d="M189.507 181.444C194.731 182.272 203.07 179.72 206.586 178.34C208.596 178.34 209.098 194.894 192.521 198.515C175.944 202.136 175.442 187.134 173.935 185.065C172.428 182.996 174.437 182.996 175.442 182.996C176.446 182.996 177.953 180.927 178.958 181.444C179.963 181.961 182.977 180.409 189.507 181.444Z" fill="#410721"/>
<path d="M197.042 186.617C199.453 186.203 203.74 186.444 205.582 186.617C206.586 187.824 206.787 191.376 199.554 195.928C190.512 201.618 180.465 196.445 179.963 195.928C179.461 195.411 180.465 192.824 182.475 191.273C184.484 189.721 194.028 187.134 197.042 186.617Z" fill="#C95464"/>
<path d="M194.028 184.548C195.234 184.548 197.21 182.479 198.047 181.444C197.879 181.272 197.042 181.03 195.033 181.444C192.521 181.961 188 181.444 186.493 181.444C184.986 181.444 180.968 181.444 179.461 181.961C177.954 182.479 176.949 182.996 176.949 184.548C176.949 186.1 179.461 186.1 180.465 186.617C181.47 187.134 183.982 186.1 184.484 186.1C184.986 186.1 191.014 186.1 191.517 185.582C192.019 185.065 192.521 184.548 194.028 184.548Z" fill="#DDDDDD"/>
<path d="M177.954 160.752C184.384 160.752 187.665 163.511 188.503 164.891C190.01 168.512 176.949 174.719 175.944 174.719C174.94 174.719 169.916 170.064 168.41 167.477C166.903 164.891 169.916 160.752 177.954 160.752Z" fill="#08060C"/>
<path d="M176.447 175.754C176.614 176.961 177.049 179.478 177.451 179.892" stroke="black" stroke-linecap="round"/>
<ellipse cx="1.50699" cy="1.55187" rx="1.50699" ry="1.55187" transform="matrix(-1 0 0 1 216.102 147.521)" fill="#F5F6E9"/>
<ellipse cx="1.00466" cy="1.03458" rx="1.00466" ry="1.03458" transform="matrix(-1 0 0 1 213.087 150.625)" fill="#F5F6E9"/>
<path d="M173.433 135.405C179.461 139.13 178.959 151.786 177.954 157.649C177.869 158.166 175.442 159.718 174.438 159.718C173.433 159.718 167.907 164.891 167.907 165.408C167.907 165.925 166.4 174.202 159.87 174.719C153.34 175.237 154.847 167.477 157.358 155.58C159.87 143.682 165.898 130.75 173.433 135.405Z" fill="#08060C"/>
<path d="M174.94 151.441C174.538 147.717 172.763 144.372 171.926 143.165C164.893 141.613 163.386 152.476 163.888 160.235C164.391 167.995 167.405 165.925 167.405 164.891C167.405 163.856 171.926 160.235 172.93 160.235C173.935 160.235 175.442 156.097 174.94 151.441Z" fill="#F5F6E9"/>
<path d="M173.935 154.545C173.935 151.234 173.935 148.855 169.916 147.303C169.414 147.303 168.409 146.786 166.4 149.89C164.391 152.993 165.898 158.683 167.907 160.235C169.916 161.787 173.935 158.683 173.935 154.545Z" fill="#17304E"/>
<ellipse cx="1.30098" cy="1.7614" rx="1.30098" ry="1.7614" transform="matrix(-0.866043 0.499969 0.478132 0.878288 171.75 148.337)" fill="#F5F6E9"/>
<path d="M293.489 156.614H299.015L263.852 128.68L257.321 126.611V129.198L293.489 156.614Z" fill="#2D3155"/>
<path d="M289.47 174.719C282.773 167.133 264.354 151.235 244.261 148.338C219.144 144.717 165.395 143.682 146.307 147.303C132.764 149.872 133.634 156.868 136 161.27M149.321 172.65C146.474 170.581 140.379 166.132 138.772 164.891C138.188 164.44 136.969 163.072 136 161.27M274.401 137.475C268.875 144.544 257.824 159.408 257.824 162.305C257.824 163.313 258.058 165.124 258.558 167.335M296.001 153.511C296.001 154.028 296.001 155.89 296.001 159.201C296.001 163.339 283.443 193.859 280.931 194.376C278.419 194.894 275.908 191.273 268.373 185.583C267.397 184.846 266.497 183.97 265.67 182.996M284.447 185.065C278.922 179.547 267.268 168.409 264.856 167.995C262.445 167.581 259.653 167.383 258.558 167.335M258.558 167.335C259.621 172.035 261.887 178.543 265.67 182.996M265.67 182.996C259.873 177.996 244.261 167.581 228.186 165.926C208.093 163.856 175.442 160.235 163.888 161.27C152.335 162.305 136.763 166.96 134.251 172.65C133.774 173.732 134.005 175.166 134.71 176.789M148.316 192.825C144.103 189.144 136.971 181.995 134.71 176.789M136 161.27C134.886 164.719 133.068 172.65 134.71 176.789" stroke="url(#paint6_linear_89_3707)" stroke-width="3" stroke-linecap="round"/>
<path d="M245.609 253.827C244.453 242.96 232.606 230.711 226.827 225.944H200.1C196.247 228.328 188.108 235.096 186.374 243.103C184.207 253.113 192.153 281.711 192.153 284.57C192.153 287.43 189.986 298.869 189.986 306.019C189.986 313.169 197.932 320.318 198.655 321.748C199.377 323.178 195.765 322.463 192.153 325.323C188.542 328.182 194.321 330.327 197.932 330.327C201.544 330.327 217.436 332.472 218.881 332.472C220.326 332.472 221.048 328.182 221.048 326.038C221.048 323.893 219.604 317.458 220.326 319.603C221.048 321.748 226.827 324.608 228.272 325.323C229.717 326.038 222.493 331.757 223.215 333.187C223.938 334.617 246.331 331.757 250.666 331.757C255 331.757 254.277 324.608 252.833 318.888C251.388 313.169 252.833 308.879 254.277 303.874C255.722 298.869 252.833 287.43 249.943 283.855C247.054 280.281 247.054 267.412 245.609 253.827Z" fill="#08060C"/>
<path d="M245.947 254.542C244.791 243.675 232.945 231.426 227.166 226.659H200.438C196.585 229.042 188.447 235.811 186.713 243.818C184.546 253.827 192.492 282.425 192.492 285.285C192.492 288.145 190.325 299.584 190.325 306.734C190.325 313.883 198.271 321.033 198.993 322.463C199.716 323.893 196.104 323.178 192.492 326.038C188.88 328.897 194.659 331.042 198.271 331.042C201.883 331.042 217.775 333.187 219.22 333.187C220.664 333.187 221.387 328.897 221.387 326.752C221.387 324.608 219.942 318.173 220.664 320.318C221.387 322.463 227.166 325.323 228.61 326.038C230.055 326.752 222.831 332.472 223.554 333.902C224.276 335.332 246.67 332.472 251.004 332.472C255.338 332.472 254.616 325.323 253.171 319.603C251.727 313.883 253.171 309.594 254.616 304.589C256.06 299.584 253.171 288.145 250.281 284.57C247.392 280.996 247.392 268.126 245.947 254.542Z" fill="#08060C"/>
<path d="M223.075 329.912C223.075 327.466 221.452 322.098 220.641 319.719C220.371 318.904 218.906 318.021 218.207 317.681L214.963 321.758C211.718 322.098 204.904 322.37 203.606 320.739C201.984 318.7 196.305 322.777 193.061 322.777C189.816 322.777 186.571 329.912 187.382 332.97C188.193 336.028 198.739 336.028 201.984 336.028C205.228 336.028 219.019 336.028 222.263 335.009C225.508 333.99 223.075 332.97 223.075 329.912Z" fill="#2D3155"/>
<path d="M205.091 332.992C208.146 332.992 217.055 332.369 221.128 332.058V334.86C221.128 335.794 218.837 335.794 216.546 335.794C214.255 335.794 193.637 336.728 189.055 334.86C184.473 332.992 189.819 324.585 192.11 323.651C194.401 322.717 201.273 323.651 203.564 328.322C205.855 332.992 201.273 332.992 205.091 332.992Z" fill="#F5F6E9"/>
<path d="M241.997 326.753C243.153 327.324 243.924 330.327 244.164 331.757C244.356 332.706 241.997 333.187 239.83 333.187C237.663 333.187 223.216 333.187 223.216 331.757C223.216 330.327 224.66 327.467 226.105 327.467C227.55 327.467 226.827 326.038 227.55 325.323C228.272 324.608 230.439 324.608 231.162 324.608H231.162C231.884 324.608 231.884 324.608 233.329 323.893C234.773 323.178 234.051 323.893 235.496 323.893C236.941 323.893 236.941 324.608 239.108 323.893C241.275 323.178 240.552 326.038 241.997 326.753Z" fill="#CFCECA" stroke="#CFCECA"/>
<path d="M238.385 326.753C238.145 326.991 237.519 327.754 236.941 328.898C236.363 330.041 236.7 331.281 236.941 331.757" stroke="black"/>
<path d="M233.329 326.753C233.088 326.991 232.462 327.754 231.884 328.898C231.306 330.041 231.643 331.281 231.884 331.757" stroke="black"/>
<path d="M254.278 298.154C254.278 295.295 251.388 288.86 249.944 286C249.246 284.57 248.499 289.575 247.776 287.43C247.054 285.285 246.332 286.715 247.054 288.86C247.776 291.005 246.332 288.86 244.887 287.43C243.442 286 241.997 285.285 242.72 287.43C243.442 289.575 239.83 286 239.108 284.57C238.386 283.141 237.663 282.426 237.663 284.57C237.663 286.715 236.219 284.57 234.774 283.14C233.329 281.711 234.051 277.421 233.329 279.566C232.607 281.711 231.884 275.991 231.884 275.276C231.884 274.561 231.884 270.986 231.162 272.416C230.44 273.846 231.884 267.412 228.272 257.402C224.661 247.393 211.658 245.248 197.933 244.533C184.208 243.818 190.709 274.561 192.154 278.851C193.599 283.14 192.154 292.435 191.431 293.865C190.709 295.295 192.876 301.014 192.876 302.444C192.876 303.874 193.599 298.154 193.599 299.584C193.599 301.014 197.21 307.449 197.21 306.734C197.21 306.162 197.692 304.589 197.933 303.874L199.377 306.734C200.1 308.164 201.545 310.309 201.545 308.879C201.545 307.449 204.434 309.594 205.879 311.024C207.324 312.453 205.156 310.309 205.156 308.879C205.156 307.449 206.601 308.879 208.046 310.309C209.491 311.739 218.159 319.603 215.992 311.024C213.825 302.444 225.383 295.295 224.661 296.01C223.938 296.725 225.383 297.439 226.105 296.725C226.627 296.208 230.159 294.202 231.541 293.395C230.707 294.255 231.884 295.94 231.884 295.295C231.884 294.58 239.83 291.72 239.108 292.435C238.386 293.15 236.941 294.58 238.386 294.58C239.83 294.58 241.997 291.72 241.997 293.15C241.997 294.58 242.72 296.725 242.72 296.01C242.72 295.295 244.165 294.58 244.887 295.295C245.609 296.01 244.887 298.154 244.887 298.869C244.887 299.584 246.332 296.725 246.332 297.439C246.332 298.154 247.054 303.159 247.054 301.729C247.054 300.299 249.221 305.304 249.221 303.159V310.309C249.221 313.168 251.388 316.028 251.388 314.598C251.388 313.168 254.278 301.729 254.278 298.154Z" fill="url(#paint7_linear_89_3707)"/>
<path d="M247.943 280.977C247.943 282.693 246.98 279.309 246.499 277.402L242.887 275.972L243.609 264.533L237.108 245.944C233.014 239.748 224.972 227.355 225.55 227.355C226.272 227.355 229.162 228.785 229.884 228.785C230.606 228.785 230.606 231.645 232.051 231.645C233.496 231.645 234.218 235.22 235.663 235.935C237.108 236.65 239.997 239.51 238.553 239.51C237.108 239.51 238.553 240.94 240.72 242.369C242.887 243.799 243.609 247.374 240.72 245.229C237.83 243.084 243.609 249.519 244.331 250.949L244.332 250.949C245.054 252.379 247.221 256.668 245.776 255.239C244.331 253.809 245.776 258.098 246.499 260.243C247.221 262.388 247.943 264.533 246.499 263.818C245.054 263.103 246.499 265.963 246.499 267.393C246.499 268.537 247.462 270.729 247.943 271.683C247.462 271.444 246.643 271.54 247.221 273.827C247.943 276.687 247.943 278.832 247.943 280.977Z" fill="#08060C"/>
<path d="M254.294 326.149C254.294 323.703 253.601 321.471 252.883 319.092C252.644 318.277 250.766 317.681 248.508 317.681L245.638 321.758C242.767 322.098 236.739 322.37 235.591 320.739C234.156 318.7 229.133 322.777 226.263 322.777C223.392 322.777 220.522 329.912 221.239 332.97C221.957 336.028 231.286 336.028 234.156 336.028C237.026 336.028 249.226 336.028 252.096 335.009C254.966 333.99 254.294 329.207 254.294 326.149Z" fill="#2D3155"/>
<path d="M238.221 331.918C241.148 331.918 249.686 331.365 253.589 331.088V333.579C253.589 334.409 251.393 334.409 249.198 334.409C247.002 334.409 227.243 335.239 222.852 333.579C218.461 331.918 223.584 324.446 225.78 323.615C227.975 322.785 234.561 323.615 236.757 327.767C238.952 331.918 234.561 331.918 238.221 331.918Z" fill="#F5F6E9"/>
<path d="M250.666 336.047C252.4 336.047 252.833 333.187 252.833 331.757C252.847 331.299 246.332 332.472 245.61 332.472C245.032 332.472 244.406 334.855 244.165 336.047H250.666Z" fill="#9B0A16"/>
<path d="M243.442 336.047C244.598 335.475 244.887 333.425 244.887 332.472L239.108 333.187C238.626 334.14 237.807 336.047 238.385 336.047C239.108 336.047 241.997 336.762 243.442 336.047Z" fill="#CCAEA0"/>
<path d="M238.385 333.902C238.385 332.758 237.904 332.949 237.663 333.187L222.493 333.187C221.049 333.187 221.049 336.762 221.771 336.762H236.218C237.663 336.762 238.385 335.332 238.385 333.902Z" fill="#3E3338"/>
<path d="M218.624 336.182C220.02 336.182 219.787 334.522 219.496 333.691C217.171 333.276 212.171 332.446 210.775 332.446C209.031 332.446 208.159 334.937 208.159 336.182C208.159 337.428 216.88 336.182 218.624 336.182Z" fill="#9B0A16"/>
<path d="M210 333.837C210 333.102 208.353 332.918 207.529 332.918C206.157 332.612 202.753 332 200.118 332C196.824 332 196 335.673 196 336.592C196 337.51 204.235 336.592 206.706 336.592C209.176 336.592 210 334.755 210 333.837Z" fill="#CCAEA0"/>
<path d="M189.274 335.788C185.224 334.302 187.654 332.072 188.464 331.328C189.112 330.734 189.814 331.081 190.084 331.328C191.704 331.824 195.268 332.815 196.564 332.815C197.859 332.815 196.564 335.293 195.754 336.532C194.944 336.779 192.514 336.978 189.274 335.788Z" fill="#3E3338"/>
<path d="M221.299 231.406C209.81 232.876 183.5 233.859 183.5 241.5C183.5 248.356 182.452 253.712 187.867 256.611C197 261.5 228.87 247.59 239 244C251.662 239.512 265.326 237.995 271 235.5C275.539 233.504 270.509 230.54 266.5 229.5C255.09 226.541 232.789 229.936 221.299 231.406Z" fill="#08060C"/>
<path d="M274.598 239.045C278.555 238.096 280.993 234.12 280.045 230.164C279.096 226.207 275.12 223.769 271.164 224.717C267.207 225.666 264.769 229.642 265.717 233.598C266.666 237.555 270.642 239.993 274.598 239.045Z" fill="white"/>
<path d="M274.598 239.045C278.555 238.096 280.993 234.12 280.045 230.164C279.096 226.207 275.12 223.769 271.164 224.717C267.207 225.666 264.769 229.642 265.717 233.598C266.666 237.555 270.642 239.993 274.598 239.045Z" stroke="black" stroke-width="2" stroke-miterlimit="10" stroke-linecap="round" stroke-linejoin="round"/>
<path d="M245.071 268C235.567 268 217.775 267.512 220.23 257.684C221.409 252.966 225.09 250.463 228.87 248.4C232.65 246.337 238.051 260.263 248.851 256.652C259.651 253.042 259.111 246.853 263.971 241.695C268.831 236.537 269.371 244.274 268.831 249.947C268.291 255.621 256.951 268 245.071 268Z" fill="#08060C"/>
<path d="M266.74 249.26C270.75 248.299 273.221 244.269 272.26 240.26C271.299 236.25 267.269 233.779 263.26 234.74C259.25 235.701 256.779 239.731 257.74 243.74C258.701 247.75 262.731 250.221 266.74 249.26Z" fill="white"/>
<path d="M266.74 249.26C270.75 248.299 273.221 244.269 272.26 240.26C271.299 236.25 267.269 233.779 263.26 234.74C259.25 235.701 256.779 239.731 257.74 243.74C258.701 247.75 262.731 250.221 266.74 249.26Z" stroke="black" stroke-width="2" stroke-miterlimit="10" stroke-linecap="round" stroke-linejoin="round"/>
<path d="M324.36 212.047L296 207.97L308.684 218.07L306.025 234.064L324.36 212.047Z" fill="#F00100"/>
<defs>
<linearGradient id="paint0_linear_89_3707" x1="130.106" y1="92.9171" x2="281.89" y2="355.822" gradientUnits="userSpaceOnUse">
<stop stop-color="#A0DBE6"/>
<stop offset="0.1" stop-color="#A4DCE1"/>
<stop offset="0.2" stop-color="#AFDDD3"/>
<stop offset="0.4" stop-color="#C0E0BA"/>
<stop offset="0.6" stop-color="#D5E597"/>
<stop offset="0.8" stop-color="#EEEA62"/>
<stop offset="1" stop-color="#FFF200"/>
</linearGradient>
<linearGradient id="paint1_linear_89_3707" x1="67.5757" y1="331.441" x2="308.797" y2="331.441" gradientUnits="userSpaceOnUse">
<stop stop-color="#98AF4E"/>
<stop offset="1" stop-color="#5A7735"/>
</linearGradient>
<linearGradient id="paint2_linear_89_3707" x1="62.2151" y1="246.056" x2="193.689" y2="287.509" gradientUnits="userSpaceOnUse">
<stop stop-color="white" stop-opacity="0"/>
<stop offset="1" stop-color="white"/>
</linearGradient>
<linearGradient id="paint3_linear_89_3707" x1="254.117" y1="188.124" x2="245.744" y2="313.141" gradientUnits="userSpaceOnUse">
<stop stop-color="white" stop-opacity="0"/>
<stop offset="1" stop-color="white" stop-opacity="0.7"/>
</linearGradient>
<linearGradient id="paint4_linear_89_3707" x1="48.8849" y1="192.739" x2="164.943" y2="192.739" gradientUnits="userSpaceOnUse">
<stop stop-color="white" stop-opacity="0.7"/>
<stop offset="1" stop-color="white" stop-opacity="0"/>
</linearGradient>
<linearGradient id="paint5_linear_89_3707" x1="221.788" y1="225.211" x2="194.5" y2="116.5" gradientUnits="userSpaceOnUse">
<stop stop-color="#F1F1F1"/>
<stop offset="1" stop-color="#FFFFF0"/>
</linearGradient>
<linearGradient id="paint6_linear_89_3707" x1="202.044" y1="91" x2="196.044" y2="194" gradientUnits="userSpaceOnUse">
<stop stop-color="#CFCFCF"/>
<stop offset="1" stop-color="#777777"/>
</linearGradient>
<linearGradient id="paint7_linear_89_3707" x1="221.815" y1="314.979" x2="200.132" y2="252.326" gradientUnits="userSpaceOnUse">
<stop stop-color="white"/>
<stop offset="1" stop-color="#FFFFF0"/>
</linearGradient>
</defs>
</svg>
