<svg width="18" height="16" viewBox="0 0 18 16" fill="none" xmlns="http://www.w3.org/2000/svg">
<path d="M4.12968 4.4C4.30086 3.34521 3.58456 2.35137 2.52978 2.18018C1.47499 2.009 0.481143 2.7253 0.309958 3.78008C0.138773 4.83487 0.855073 5.82871 1.90986 5.9999C2.96465 6.17108 3.95849 5.45478 4.12968 4.4Z" stroke="#2D3155" stroke-width="0.5" stroke-miterlimit="10"/>
<path d="M16.9969 8.39895L13.6106 9.98944C13.4414 10.0568 13.2013 9.79452 13.0749 9.411C12.9519 9.02411 12.9824 8.65785 13.1519 8.5905L16.5383 7L17 8.39895H16.9969Z" stroke="#2D3155" stroke-width="0.5" stroke-miterlimit="10"/>
<path d="M16.9969 8.39895L13.6106 9.98944C13.4414 10.0568 13.2013 9.79452 13.0749 9.411C12.9519 9.02411 12.9824 8.65785 13.1519 8.5905L16.5383 7L17 8.39895H16.9969Z" stroke="#2D3155" stroke-width="0.5" stroke-miterlimit="10"/>
<path d="M9 15C12.866 15 16 11.866 16 8C16 4.13401 12.866 1 9 1C5.13401 1 2 4.13401 2 8C2 11.866 5.13401 15 9 15Z" stroke="#2D3155" stroke-miterlimit="10"/>
<path d="M9 15C12.866 15 16 11.866 16 8C16 4.13401 12.866 1 9 1C5.13401 1 2 4.13401 2 8C2 11.866 5.13401 15 9 15Z" fill="url(#paint0_linear_94_4290)"/>
<path d="M16.9961 8.39895L12.7632 9.98944C12.5517 10.0568 12.2516 9.79452 12.0936 9.411C11.9399 9.02411 11.9779 8.65785 12.1899 8.5905L16.4228 7L17 8.39895H16.9961Z" fill="white"/>
<path d="M12.4776 9L11 9.79694L11.1045 10.1337L12.5791 9.33678L12.4776 9ZM11.9505 10.6222L12.6447 10.7142L12.5731 10.9437L11.9266 10.8609L11.9505 10.6222ZM13.5535 10.7659L13.461 10.5395L13.3834 10.5211L13.4072 10.7506L13.0555 10.7138L12.9958 10.9464L13.7795 11.1207L14 10.8084L13.5535 10.7659ZM11.6972 10.8671L11.2294 12.9816L11.4469 13L12.0486 10.928L11.6972 10.8671Z" fill="#916C29"/>
<path d="M12.8251 10.7002L11.7002 13.3575L12.0793 13.467L13.2881 10.7331L12.8251 10.7002ZM14.0858 10.9699L12.6732 13.5834L13.0124 13.7002L14.7002 11.0539L14.0858 10.9699Z" fill="#916C29"/>
<path d="M8.93853 15C10.5184 15.002 12.0407 14.5204 13.2002 13.6514L3.2002 12C4.21794 13.8276 6.46568 15.002 8.94184 15H8.93853Z" fill="url(#paint1_linear_94_4290)"/>
<path d="M7.2762 10.8726L7.71746 10.1769L6.82741 10.5409L6.10361 10L6.22741 10.5433L4.17185 11.4918L2 10.4596L2.07782 10.7964L3.47634 11.5843L4.61356 11.7826L6.39012 11.2608L6.55947 12L7.00427 11.3043L8 11.4128L7.2762 10.8726Z" fill="url(#paint2_linear_94_4290)"/>
<path d="M5.72983 10.111L5 9.8849M7.05699 9L6.95013 9.7105M8 11.9404L7.41122 11.4798M5.78486 12L6.2374 11.4207" stroke="white" stroke-width="0.2" stroke-miterlimit="10"/>
<path d="M11.8898 9.03024C11.9719 9.27522 12.007 9.53937 11.9914 9.80736C11.9054 11.0251 10.7426 11.9402 9.3843 11.8482C8.55078 11.805 7.79346 11.3592 7.36302 10.6573L7 10.7877C7.05472 10.8951 7.11726 10.9982 7.17931 11.1018C7.93418 12.2164 9.18105 12.9163 10.5432 12.9897C12.8577 13.1426 14.8477 11.5807 14.9923 9.50102C15.0265 8.98997 14.9464 8.47749 14.7583 8L11.8898 9.03408V9.03024Z" fill="url(#paint3_linear_94_4290)"/>
<path d="M7 10L2 6L4 3L7 10Z" fill="url(#paint4_linear_94_4290)"/>
<path d="M4.12968 4.4C4.30086 3.34521 3.58456 2.35137 2.52978 2.18018C1.47499 2.009 0.481143 2.7253 0.309958 3.78008C0.138773 4.83487 0.855073 5.82871 1.90986 5.9999C2.96465 6.17108 3.95849 5.45478 4.12968 4.4Z" fill="#AA1F44"/>
<path d="M0.731934 5.20302L0.891764 5.03955" stroke="white" stroke-width="0.2" stroke-miterlimit="10"/>
<path d="M1.22314 4.71132L3.03092 2.8999" stroke="white" stroke-width="0.2" stroke-miterlimit="10" stroke-dasharray="12.79 12.79"/>
<path d="M3.19482 2.73672L3.3583 2.57324" stroke="white" stroke-width="0.2" stroke-miterlimit="10"/>
<path d="M0.921387 5.46133L1.08486 5.29785" stroke="white" stroke-width="0.2" stroke-miterlimit="10"/>
<path d="M1.41943 4.96267L3.25271 3.12939" stroke="white" stroke-width="0.2" stroke-miterlimit="10" stroke-dasharray="12.97 12.97"/>
<path d="M3.41992 2.9623L3.5834 2.79883" stroke="white" stroke-width="0.2" stroke-miterlimit="10"/>
<path d="M4.12968 4.4C4.30086 3.34521 3.58456 2.35137 2.52978 2.18018C1.47499 2.009 0.481143 2.7253 0.309958 3.78008C0.138773 4.83487 0.855073 5.82871 1.90986 5.9999C2.96465 6.17108 3.95849 5.45478 4.12968 4.4Z" fill="#AA1F44"/>
<path opacity="0.5" d="M3.22532 2.5C3.79186 3.38357 3.53475 4.55869 2.65118 5.12523C2.02606 5.52587 1.22522 5.52587 0.600098 5.12523C1.16664 6.0088 2.34175 6.26546 3.22532 5.69937C4.1089 5.13283 4.36556 3.95771 3.79947 3.07414C3.65146 2.84341 3.45561 2.64756 3.22532 2.5Z" fill="#701431"/>
<path d="M0.731934 5.20302L0.891764 5.03955" stroke="white" stroke-width="0.2" stroke-miterlimit="10"/>
<path d="M1.22314 4.71132L3.03092 2.8999" stroke="white" stroke-width="0.2" stroke-miterlimit="10" stroke-dasharray="12.79 12.79"/>
<path d="M3.19482 2.73672L3.3583 2.57324" stroke="white" stroke-width="0.2" stroke-miterlimit="10"/>
<path d="M0.921387 5.46133L1.08486 5.29785" stroke="white" stroke-width="0.2" stroke-miterlimit="10"/>
<path d="M1.41943 4.96267L3.25271 3.12939" stroke="white" stroke-width="0.2" stroke-miterlimit="10" stroke-dasharray="12.97 12.97"/>
<path d="M3.41992 2.9623L3.5834 2.79883" stroke="white" stroke-width="0.2" stroke-miterlimit="10"/>
<path d="M10.4668 8.53861C11.1797 8.37205 11.1637 7.84968 11.0816 7.74173L10.3985 7.85557C9.87397 7.97123 9.15519 8.3495 8.83667 8.3495C8.43852 8.3495 7.33885 7.40105 7.18718 7.37791C7.0355 7.35478 7.71805 8.18756 8.0214 8.44203C8.32476 8.69649 9.23482 8.74275 9.42442 8.74275C9.61402 8.74275 9.57572 8.7468 10.4668 8.53861Z" fill="#08060C"/>
<path d="M12.1471 7.56559C11.8543 7.94248 9.44795 8.52463 9.17346 8.57847C8.89898 8.63231 8.73886 8.62558 8.60162 8.57847C8.46437 8.53136 7.34355 7.98959 6.79457 7.56559C6.2456 7.1416 6.40572 6.52916 6.45146 6.34072C6.49721 6.15228 6.79457 5.28074 6.81745 4.80963C6.84032 4.33853 7.00044 3.56121 7.41217 3.41988C7.8239 3.27854 9.21921 3.34921 9.65382 3.34921C10.0884 3.34921 11.7353 4.43275 12.0098 4.43275C12.2843 4.43275 13.0849 5.18652 13.1078 5.5634C13.1307 5.94028 12.5131 7.09449 12.1471 7.56559Z" fill="url(#paint5_linear_94_4290)"/>
<path d="M13.2451 5.72834C13.2451 5.8791 13.1079 5.9796 13.0393 6.011C13.0698 5.86967 13.1307 5.57288 13.1307 5.51634C13.1307 5.44568 12.7648 4.95102 12.6275 4.83324C12.4903 4.71547 12.1243 4.55058 12.0099 4.59769C11.8956 4.6448 11.2093 4.15014 10.9348 4.10303C10.6604 4.05592 9.60816 3.65548 8.7847 3.49059C7.96123 3.32571 7.5495 3.53771 7.18352 3.77326C6.81754 4.00881 6.93191 4.88035 6.81754 4.95102C6.70317 5.02168 6.54305 4.69191 6.52018 4.55058C6.4973 4.40925 6.33718 4.59769 5.90258 4.22081C5.46797 3.84392 6.40581 3.30215 6.70317 3.2786C7.00053 3.25504 6.84041 3.20793 7.00053 2.99594C7.16065 2.78394 7.86974 1.67684 8.44159 1.46485C9.01344 1.25285 10.1114 1.06441 11.1865 1.46485C12.2615 1.86529 13.1079 3.4906 13.1307 3.70259C13.1536 3.91459 13.1994 5.0688 13.1994 5.23368C13.1994 5.39857 13.2451 5.5399 13.2451 5.72834Z" fill="#A4142E"/>
<path d="M9.39874 1.85625L8.48634 2.53156L9.125 2.46265L9.49573 2.98723L9.39874 1.85625Z" fill="white"/>
<path d="M11.39 1.87664C11.7319 1.96065 12.3758 2.6773 12.655 3.02513C12.6945 3.16461 12.8404 3.42462 13.0236 3.56108C13.2068 3.69753 13.6833 3.33675 13.876 2.86794C14.0687 2.39912 13.8242 1.79041 13.5659 1.26092C13.3076 0.731427 12.4781 0.0999363 11.4129 0.55201C10.3476 1.00408 10.9625 1.77162 11.39 1.87664Z" fill="#08060C"/>
<path d="M12.0737 1.25395C11.5739 1.33565 11.5178 1.68507 11.5522 1.84957C11.7697 2.06185 12.2519 2.52529 12.4412 2.68082C12.6778 2.87523 12.6973 2.94437 12.8557 2.86222C13.014 2.78008 13.1938 2.13182 13.096 1.78612C12.9981 1.44042 12.6986 1.15182 12.0737 1.25395Z" fill="#F3F4DF"/>
<path d="M6.96074 1.79915C7.16203 1.51648 7.7645 1.79758 7.91699 1.84469C7.8255 1.97817 7.57358 2.22153 7.52675 2.28925C7.39333 2.48218 6.97778 3.06657 6.90915 3.2079C6.84053 3.34923 6.57188 2.95335 6.57188 2.7178C6.57188 2.48225 6.70913 2.15248 6.96074 1.79915Z" fill="#08060C"/>
<path d="M11.9181 3.65527L13.4507 4.99792L13.2677 5.46903L11.6436 4.2206L11.9181 3.65527Z" fill="#070E3B"/>
<path d="M11.5977 3.63184L11.895 3.65539L11.6434 4.24427L11.3689 4.10294L11.5977 3.63184Z" fill="#2D3155"/>
<path d="M11.7121 5.72857C11.6389 5.38938 11.0869 4.47229 10.82 4.05615C11.1479 4.18178 11.8402 4.44246 11.9866 4.48015C12.1696 4.52726 12.9702 5.16325 13.0159 5.23391C13.0617 5.30458 13.1074 5.72857 13.1074 5.82279C13.1074 5.91702 12.5813 7.189 12.467 7.23611C12.3526 7.28322 11.8036 6.765 11.7121 6.62367C11.6206 6.48234 11.8036 6.15257 11.7121 5.72857Z" fill="#070E3B"/>
<path d="M11.471 4.87244C11.3982 4.72672 11.2282 4.37154 11.1523 4.21217L10.9701 4.12109L11.1523 4.39431C11.38 4.86485 11.8353 5.82869 11.8353 5.91976C11.8353 6.0336 11.7442 6.6028 11.7442 6.6711C11.7442 6.7394 12.359 7.19476 12.4501 7.19476C12.5411 7.19476 12.6777 6.78494 12.6777 6.69387C12.6777 6.6028 12.0402 6.05637 11.9492 5.85146C11.8581 5.64654 11.5621 5.05458 11.471 4.87244Z" fill="#2D3155"/>
<path d="M10.6376 5.32796C10.5095 4.78148 9.74547 4.42501 9.37949 4.31508C8.51028 4.22086 8.35016 5.25729 9.15075 5.94039C9.95134 6.62349 10.7977 6.01106 10.6376 5.32796Z" fill="#08060C"/>
<path d="M9.95117 5.25724C9.95117 4.91804 9.60044 4.77043 9.42507 4.73902C9.01334 4.71547 8.71598 5.25724 9.03621 5.63412C9.35645 6.01101 9.95117 5.68123 9.95117 5.25724Z" fill="#F5F6E9"/>
<path d="M9.83511 5.33765C9.85341 5.16805 9.67499 5.05499 9.67499 5.05499C9.67499 5.05499 9.59722 4.97961 9.37763 5.05498C9.10314 5.14921 9.24039 5.59676 9.40051 5.71453C9.56063 5.83231 9.81223 5.54964 9.83511 5.33765Z" fill="#17304E"/>
<path d="M6.24538 5.84592C6.30028 5.7517 6.61899 5.25704 6.77148 5.02148C6.71811 5.31985 6.58849 5.96369 6.497 6.15214C6.38263 6.38769 6.42838 6.92946 6.45125 7.07079C6.47412 7.21212 6.35975 7.1179 6.15389 6.74102C5.94802 6.36413 6.17676 5.96369 6.24538 5.84592Z" fill="#070E3B"/>
<path d="M9.49366 3.65566C9.78644 3.69335 10.0121 4.06395 10.0884 4.24454C9.95114 4.14247 9.59888 3.94774 9.28779 3.98543C8.89893 4.03254 8.71594 4.24454 8.71594 3.86765C8.71594 3.49077 9.12767 3.60855 9.49366 3.65566Z" fill="#08060C"/>
<path d="M7.59503 3.8436C7.68653 4.03205 7.60266 4.25189 7.54928 4.33826C7.55378 4.33041 7.51432 4.29115 7.32054 4.19693C7.08008 4.08001 6.9789 4.49704 6.95507 4.59527L6.95456 4.59737C6.93169 4.69159 6.97743 4.12627 7.06893 3.91427C7.16043 3.70227 7.48066 3.60805 7.59503 3.8436Z" fill="#08060C"/>
<path d="M8.28112 6.62326C8.51901 6.66095 8.89872 6.54475 9.05884 6.48193C9.15033 6.48193 9.17321 7.2357 8.41836 7.40059C7.66352 7.56547 7.64065 6.88237 7.57203 6.78815C7.50341 6.69393 7.5949 6.69393 7.64065 6.69393C7.6864 6.69393 7.75502 6.59971 7.80077 6.62326C7.84652 6.64682 7.98376 6.57615 8.28112 6.62326Z" fill="#410721"/>
<path d="M8.62456 6.85904C8.73435 6.84019 8.92954 6.85119 9.01341 6.85904C9.05916 6.914 9.06831 7.07575 8.73893 7.28303C8.32719 7.54214 7.86972 7.30659 7.84684 7.28303C7.82397 7.25948 7.86972 7.1417 7.96121 7.07104C8.05271 7.00037 8.48731 6.88259 8.62456 6.85904Z" fill="#C95464"/>
<path d="M8.48742 6.76502C8.54232 6.76502 8.63229 6.6708 8.67041 6.62369C8.66279 6.61583 8.62466 6.60484 8.53317 6.62369C8.4188 6.64724 8.21293 6.62369 8.14431 6.62369C8.07569 6.62369 7.8927 6.62369 7.82407 6.64724C7.75545 6.6708 7.7097 6.69435 7.7097 6.76502C7.7097 6.83568 7.82407 6.83568 7.86982 6.85924C7.91557 6.88279 8.02994 6.83568 8.05281 6.83568C8.07569 6.83568 8.35017 6.83568 8.37305 6.81213C8.39592 6.78857 8.4188 6.76502 8.48742 6.76502Z" fill="#DDDDDD"/>
<path d="M7.75535 5.68115C8.04814 5.68115 8.19758 5.80678 8.23571 5.86959C8.30433 6.03448 7.70961 6.31714 7.66386 6.31714C7.61811 6.31714 7.38937 6.10515 7.32075 5.98737C7.25213 5.86959 7.38937 5.68115 7.75535 5.68115Z" fill="#08060C"/>
<path d="M7.68667 6.36475C7.6943 6.41971 7.71412 6.53434 7.73242 6.55319" stroke="black" stroke-width="0.1" stroke-linecap="round"/>
<ellipse cx="0.0686219" cy="0.0706657" rx="0.0686219" ry="0.0706657" transform="matrix(-1 0 0 1 9.49219 5.07861)" fill="#F5F6E9"/>
<ellipse cx="0.0457479" cy="0.0471104" rx="0.0457479" ry="0.0471104" transform="matrix(-1 0 0 1 9.35498 5.22021)" fill="#F5F6E9"/>
<path d="M7.54938 4.52672C7.82387 4.69631 7.80099 5.27263 7.75525 5.53959C7.7514 5.56315 7.64088 5.63381 7.59513 5.63381C7.54938 5.63381 7.29777 5.86936 7.29777 5.89292C7.29777 5.91648 7.22915 6.29336 6.93179 6.31691C6.63442 6.34047 6.70305 5.98714 6.81742 5.44537C6.93179 4.9036 7.20627 4.31472 7.54938 4.52672Z" fill="#08060C"/>
<path d="M7.61802 5.25723C7.59972 5.08763 7.51889 4.93531 7.48077 4.88034C7.16054 4.80968 7.09191 5.30434 7.11479 5.65767C7.13766 6.01099 7.2749 5.91677 7.2749 5.86966C7.2749 5.82255 7.48077 5.65767 7.52652 5.65767C7.57227 5.65767 7.64089 5.46922 7.61802 5.25723Z" fill="#F5F6E9"/>
<path d="M7.57275 5.39814C7.57275 5.24739 7.57275 5.13903 7.38976 5.06837C7.36689 5.06837 7.32114 5.04481 7.22964 5.18614C7.13815 5.32747 7.20677 5.58658 7.29827 5.65725C7.38976 5.72791 7.57275 5.58658 7.57275 5.39814Z" fill="#17304E"/>
<ellipse cx="0.0592413" cy="0.080207" rx="0.0592413" ry="0.080207" transform="matrix(-0.866043 0.499969 0.478132 0.878288 7.47314 5.11572)" fill="#F5F6E9"/>
<path d="M13.0165 5.49267H13.2681L11.6669 4.22069L11.3695 4.12646V4.24424L13.0165 5.49267Z" fill="#2D3155"/>
<path d="M12.833 6.31756C12.528 5.97208 11.6893 5.24815 10.7744 5.11624C9.63066 4.95136 7.18314 4.90425 6.31393 5.06913C5.69724 5.18612 5.73685 5.50467 5.84459 5.70512M6.45118 6.22334C6.32156 6.12912 6.04402 5.92654 5.97082 5.87001C5.94424 5.84948 5.8887 5.7872 5.84459 5.70512M12.1468 4.62158C11.8952 4.9435 11.392 5.62032 11.392 5.75223C11.392 5.79816 11.4026 5.88063 11.4254 5.98132M13.1304 5.35179C13.1304 5.37535 13.1304 5.46015 13.1304 5.6109C13.1304 5.79934 12.5585 7.1891 12.4442 7.21266C12.3298 7.23621 12.2154 7.07133 11.8723 6.81222C11.8279 6.77867 11.7869 6.73879 11.7492 6.69444M12.6043 6.78866C12.3527 6.53741 11.822 6.03018 11.7122 6.01134C11.6024 5.9925 11.4752 5.98347 11.4254 5.98132M11.4254 5.98132C11.4738 6.19534 11.577 6.49169 11.7492 6.69444M11.7492 6.69444C11.4853 6.46674 10.7744 5.9925 10.0424 5.91712C9.12743 5.8229 7.64062 5.65801 7.11452 5.70512C6.58842 5.75223 5.87933 5.96423 5.76496 6.22334C5.74322 6.27259 5.75376 6.33789 5.78585 6.41178M6.40543 7.14199C6.2136 6.97438 5.88882 6.64886 5.78585 6.41178M5.84459 5.70512C5.79385 5.86216 5.71107 6.22334 5.78585 6.41178" stroke="url(#paint6_linear_94_4290)" stroke-width="0.2" stroke-linecap="round"/>
<path d="M10.8358 9.91958C10.7832 9.42473 10.2437 8.86694 9.98058 8.6499H8.76352C8.58808 8.75842 8.21748 9.06662 8.13853 9.43125C8.03985 9.88703 8.40168 11.1893 8.40168 11.3195C8.40168 11.4497 8.303 11.9706 8.303 12.2962C8.303 12.6217 8.66483 12.9473 8.69773 13.0124C8.73062 13.0775 8.56615 13.045 8.40168 13.1752C8.23721 13.3054 8.50037 13.4031 8.66483 13.4031C8.8293 13.4031 9.55297 13.5007 9.61876 13.5007C9.68454 13.5007 9.71744 13.3054 9.71744 13.2077C9.71744 13.1101 9.65165 12.8171 9.68454 12.9147C9.71744 13.0124 9.98059 13.1426 10.0464 13.1752C10.1122 13.2077 9.78323 13.4682 9.81612 13.5333C9.84901 13.5984 10.8687 13.4682 11.0661 13.4682C11.2634 13.4682 11.2305 13.1426 11.1648 12.8822C11.099 12.6217 11.1648 12.4264 11.2305 12.1985C11.2963 11.9706 11.1648 11.4497 11.0332 11.2869C10.9016 11.1242 10.9016 10.5381 10.8358 9.91958Z" fill="#08060C"/>
<path d="M10.8514 9.9523C10.7988 9.45745 10.2594 8.89966 9.99621 8.68262H8.77914C8.60371 8.79114 8.2331 9.09933 8.15416 9.46396C8.05548 9.91974 8.41731 11.222 8.41731 11.3522C8.41731 11.4824 8.31863 12.0033 8.31863 12.3289C8.31863 12.6544 8.68046 12.98 8.71335 13.0451C8.74625 13.1102 8.58178 13.0777 8.41731 13.2079C8.25284 13.3381 8.51599 13.4358 8.68046 13.4358C8.84493 13.4358 9.56859 13.5335 9.63438 13.5335C9.70017 13.5335 9.73306 13.3381 9.73306 13.2405C9.73306 13.1428 9.66728 12.8498 9.70017 12.9474C9.73306 13.0451 9.99621 13.1753 10.062 13.2079C10.1278 13.2405 9.79885 13.5009 9.83175 13.566C9.86464 13.6311 10.8843 13.5009 11.0817 13.5009C11.2791 13.5009 11.2462 13.1753 11.1804 12.9149C11.1146 12.6544 11.1804 12.4591 11.2462 12.2312C11.312 12.0033 11.1804 11.4824 11.0488 11.3196C10.9172 11.1569 10.9172 10.5709 10.8514 9.9523Z" fill="#08060C"/>
<path d="M9.8102 13.3841C9.8102 13.2727 9.73633 13.0283 9.69939 12.92C9.68711 12.8828 9.62039 12.8426 9.58857 12.8271L9.44082 13.0128C9.29307 13.0283 8.98279 13.0407 8.92368 12.9664C8.84981 12.8736 8.59124 13.0592 8.44349 13.0592C8.29574 13.0592 8.14798 13.3841 8.18492 13.5234C8.22186 13.6626 8.70206 13.6626 8.84981 13.6626C8.99756 13.6626 9.62551 13.6626 9.77327 13.6162C9.92102 13.5698 9.8102 13.5234 9.8102 13.3841Z" fill="#2D3155"/>
<path d="M8.99096 13.5241C9.13005 13.5241 9.53574 13.4958 9.72119 13.4816V13.6092C9.72119 13.6517 9.61687 13.6517 9.51255 13.6517C9.40823 13.6517 8.46936 13.6943 8.26072 13.6092C8.05209 13.5241 8.2955 13.1413 8.39982 13.0988C8.50414 13.0563 8.81709 13.0988 8.92141 13.3115C9.02573 13.5241 8.81709 13.5241 8.99096 13.5241Z" fill="#F5F6E9"/>
<path d="M10.6718 13.2404C10.7244 13.2664 10.7595 13.4032 10.7705 13.4683C10.7792 13.5115 10.6718 13.5334 10.5731 13.5334C10.4745 13.5334 9.81658 13.5334 9.81658 13.4683C9.81658 13.4032 9.88236 13.273 9.94815 13.273C10.0139 13.273 9.98104 13.2078 10.0139 13.1753C10.0468 13.1427 10.1455 13.1427 10.1784 13.1427H10.1784C10.2113 13.1427 10.2113 13.1427 10.2771 13.1102C10.3429 13.0776 10.31 13.1102 10.3758 13.1102C10.4416 13.1102 10.4416 13.1427 10.5402 13.1102C10.6389 13.0776 10.606 13.2078 10.6718 13.2404Z" fill="#CFCECA" stroke="#CFCECA"/>
<path d="M10.5073 13.2402C10.4964 13.2511 10.4679 13.2858 10.4415 13.3379C10.4152 13.39 10.4306 13.4464 10.4415 13.4681" stroke="black"/>
<path d="M10.2769 13.2402C10.2659 13.2511 10.2374 13.2858 10.2111 13.3379C10.1848 13.39 10.2001 13.4464 10.2111 13.4681" stroke="black"/>
<path d="M11.231 11.9379C11.231 11.8076 11.0994 11.5146 11.0336 11.3844C11.0018 11.3193 10.9678 11.5472 10.9349 11.4495C10.902 11.3519 10.8691 11.417 10.902 11.5146C10.9349 11.6123 10.8691 11.5146 10.8033 11.4495C10.7375 11.3844 10.6718 11.3519 10.7047 11.4495C10.7375 11.5472 10.5731 11.3844 10.5402 11.3193C10.5073 11.2542 10.4744 11.2216 10.4744 11.3193C10.4744 11.417 10.4086 11.3193 10.3428 11.2542C10.277 11.1891 10.3099 10.9937 10.277 11.0914C10.2441 11.1891 10.2112 10.9286 10.2112 10.8961C10.2112 10.8635 10.2112 10.7007 10.1784 10.7658C10.1455 10.831 10.2112 10.538 10.0468 10.0822C9.88231 9.62639 9.29022 9.52872 8.66524 9.49616C8.04025 9.46361 8.3363 10.8635 8.40208 11.0589C8.46787 11.2542 8.40208 11.6774 8.36919 11.7425C8.3363 11.8076 8.43498 12.0681 8.43498 12.1332C8.43498 12.1983 8.46787 11.9379 8.46787 12.003C8.46787 12.0681 8.63234 12.3611 8.63234 12.3285C8.63234 12.3025 8.65427 12.2309 8.66524 12.1983L8.73102 12.3285C8.76392 12.3936 8.8297 12.4913 8.8297 12.4262C8.8297 12.3611 8.96128 12.4588 9.02707 12.5239C9.09286 12.589 8.99417 12.4913 8.99417 12.4262C8.99417 12.3611 9.05996 12.4262 9.12575 12.4913C9.19154 12.5564 9.58626 12.9145 9.48758 12.5239C9.3889 12.1332 9.9152 11.8076 9.88231 11.8402C9.84941 11.8727 9.9152 11.9053 9.9481 11.8727C9.97184 11.8493 10.1327 11.7579 10.1956 11.7211C10.1576 11.7603 10.2112 11.837 10.2112 11.8076C10.2112 11.7751 10.5731 11.6449 10.5402 11.6774C10.5073 11.71 10.4415 11.7751 10.5073 11.7751C10.5731 11.7751 10.6718 11.6449 10.6718 11.71C10.6718 11.7751 10.7047 11.8727 10.7047 11.8402C10.7047 11.8076 10.7704 11.7751 10.8033 11.8076C10.8362 11.8402 10.8033 11.9379 10.8033 11.9704C10.8033 12.003 10.8691 11.8727 10.8691 11.9053C10.8691 11.9379 10.902 12.1658 10.902 12.1006C10.902 12.0355 11.0007 12.2634 11.0007 12.1658V12.4913C11.0007 12.6215 11.0994 12.7518 11.0994 12.6866C11.0994 12.6215 11.231 12.1006 11.231 11.9379Z" fill="url(#paint7_linear_94_4290)"/>
<path d="M10.9424 11.1561C10.9424 11.2342 10.8985 11.0801 10.8766 10.9933L10.7121 10.9282L10.745 10.4073L10.449 9.56081C10.2626 9.27866 9.89636 8.71436 9.92267 8.71436C9.95557 8.71436 10.0871 8.77947 10.12 8.77947C10.1529 8.77947 10.1529 8.90969 10.2187 8.90969C10.2845 8.90969 10.3174 9.07247 10.3832 9.10503C10.449 9.13758 10.5806 9.26781 10.5148 9.26781C10.449 9.26781 10.5148 9.33292 10.6134 9.39803C10.7121 9.46314 10.745 9.62592 10.6134 9.52825C10.4819 9.43059 10.745 9.72359 10.7779 9.7887L10.7779 9.78871C10.8108 9.85382 10.9095 10.0491 10.8437 9.98404C10.7779 9.91892 10.8437 10.1143 10.8766 10.2119C10.9095 10.3096 10.9424 10.4073 10.8766 10.3747C10.8108 10.3422 10.8766 10.4724 10.8766 10.5375C10.8766 10.5896 10.9205 10.6894 10.9424 10.7328C10.9205 10.722 10.8832 10.7263 10.9095 10.8305C10.9424 10.9607 10.9424 11.0584 10.9424 11.1561Z" fill="#08060C"/>
<path d="M11.2313 13.2127C11.2313 13.1014 11.1997 12.9997 11.167 12.8914C11.1561 12.8543 11.0706 12.8271 10.9678 12.8271L10.8371 13.0128C10.7064 13.0283 10.4319 13.0407 10.3796 12.9664C10.3143 12.8736 10.0855 13.0592 9.95482 13.0592C9.82411 13.0592 9.69341 13.3841 9.72609 13.5234C9.75876 13.6626 10.1836 13.6626 10.3143 13.6626C10.445 13.6626 11.0005 13.6626 11.1312 13.6162C11.2619 13.5698 11.2313 13.352 11.2313 13.2127Z" fill="#2D3155"/>
<path d="M10.4994 13.4752C10.6327 13.4752 11.0215 13.45 11.1992 13.4374V13.5509C11.1992 13.5887 11.0992 13.5887 10.9993 13.5887C10.8993 13.5887 9.99955 13.6265 9.7996 13.5509C9.59966 13.4752 9.83293 13.135 9.9329 13.0972C10.0329 13.0594 10.3328 13.0972 10.4328 13.2862C10.5327 13.4752 10.3328 13.4752 10.4994 13.4752Z" fill="#F5F6E9"/>
<path d="M11.0664 13.6635C11.1453 13.6635 11.165 13.5333 11.165 13.4682C11.1656 13.4474 10.869 13.5008 10.8361 13.5008C10.8098 13.5008 10.7813 13.6093 10.7703 13.6635H11.0664Z" fill="#9B0A16"/>
<path d="M10.7369 13.6633C10.7896 13.6372 10.8027 13.5439 10.8027 13.5005L10.5396 13.533C10.5177 13.5765 10.4804 13.6633 10.5067 13.6633C10.5396 13.6633 10.6712 13.6958 10.7369 13.6633Z" fill="#CCAEA0"/>
<path d="M10.5073 13.5657C10.5073 13.5136 10.4854 13.5223 10.4744 13.5331L9.78366 13.5331C9.71787 13.5331 9.71787 13.6959 9.75077 13.6959H10.4086C10.4744 13.6959 10.5073 13.6308 10.5073 13.5657Z" fill="#3E3338"/>
<path d="M9.60698 13.6696C9.67052 13.6696 9.65993 13.594 9.6467 13.5562C9.5408 13.5373 9.31311 13.4995 9.24957 13.4995C9.17015 13.4995 9.13044 13.6129 9.13044 13.6696C9.13044 13.7264 9.52756 13.6696 9.60698 13.6696Z" fill="#9B0A16"/>
<path d="M9.21436 13.5631C9.21436 13.5297 9.13936 13.5213 9.10186 13.5213C9.03935 13.5074 8.88435 13.4795 8.76435 13.4795C8.61435 13.4795 8.57685 13.6468 8.57685 13.6886C8.57685 13.7304 8.95185 13.6886 9.06436 13.6886C9.17686 13.6886 9.21436 13.6049 9.21436 13.5631Z" fill="#CCAEA0"/>
<path d="M8.27048 13.6516C8.08607 13.5839 8.19671 13.4824 8.2336 13.4485C8.2631 13.4215 8.29506 13.4373 8.30736 13.4485C8.38112 13.4711 8.5434 13.5162 8.60241 13.5162C8.66142 13.5162 8.60241 13.6291 8.56553 13.6855C8.52865 13.6968 8.418 13.7058 8.27048 13.6516Z" fill="#3E3338"/>
<path d="M9.72894 8.89873C9.20575 8.96567 8.00769 9.01046 8.0077 9.35838C8.0077 9.67058 7.95997 9.91446 8.20657 10.0465C8.62244 10.2691 10.0737 9.6357 10.5349 9.47223C11.1115 9.26788 11.7337 9.1988 11.9921 9.08517C12.1988 8.99427 11.9697 8.85929 11.7872 8.81196C11.2676 8.67722 10.2521 8.8318 9.72894 8.89873Z" fill="#08060C"/>
<path d="M12.1559 9.24609C12.3361 9.20291 12.4471 9.02185 12.404 8.84169C12.3608 8.66153 12.1797 8.55049 11.9995 8.59368C11.8194 8.63686 11.7084 8.81792 11.7515 8.99808C11.7947 9.17824 11.9758 9.28928 12.1559 9.24609Z" fill="white"/>
<path d="M12.1559 9.24609C12.3361 9.20291 12.4471 9.02185 12.404 8.84169C12.3608 8.66153 12.1797 8.55049 11.9995 8.59368C11.8194 8.63686 11.7084 8.81792 11.7515 8.99808C11.7947 9.17824 11.9758 9.28928 12.1559 9.24609Z" stroke="black" stroke-width="0.2" stroke-miterlimit="10" stroke-linecap="round" stroke-linejoin="round"/>
<path d="M11.0233 10C10.6354 10 9.90917 9.98257 10.0094 9.63158C10.0575 9.46306 10.2078 9.37368 10.3621 9.29999C10.5163 9.22631 10.7368 9.72368 11.1776 9.59473C11.6184 9.46578 11.5964 9.24473 11.7947 9.06052C11.9931 8.87631 12.0152 9.15263 11.9931 9.35526C11.9711 9.55789 11.5082 10 11.0233 10Z" fill="#08060C"/>
<path d="M11.7981 9.71131C11.9807 9.66754 12.0932 9.48406 12.0495 9.30148C12.0057 9.11891 11.8222 9.00638 11.6397 9.05015C11.4571 9.09392 11.3446 9.2774 11.3883 9.45997C11.4321 9.64255 11.6156 9.75507 11.7981 9.71131Z" fill="white"/>
<path d="M11.7981 9.71131C11.9807 9.66754 12.0932 9.48406 12.0495 9.30148C12.0057 9.11891 11.8222 9.00638 11.6397 9.05015C11.4571 9.09392 11.3446 9.2774 11.3883 9.45997C11.4321 9.64255 11.6156 9.75507 11.7981 9.71131Z" stroke="black" stroke-width="0.2" stroke-miterlimit="10" stroke-linecap="round" stroke-linejoin="round"/>
<path d="M14.2912 8.59411L12.9998 8.40846L13.5774 8.86836L13.4564 9.59667L14.2912 8.59411Z" fill="#F00100"/>
<defs>
<linearGradient id="paint0_linear_94_4290" x1="5.49938" y1="1.93667" x2="12.5005" y2="14.0633" gradientUnits="userSpaceOnUse">
<stop stop-color="#A0DBE6"/>
<stop offset="0.1" stop-color="#A4DCE1"/>
<stop offset="0.2" stop-color="#AFDDD3"/>
<stop offset="0.4" stop-color="#C0E0BA"/>
<stop offset="0.6" stop-color="#D5E597"/>
<stop offset="0.8" stop-color="#EEEA62"/>
<stop offset="1" stop-color="#FFF200"/>
</linearGradient>
<linearGradient id="paint1_linear_94_4290" x1="3.20001" y1="13.5" x2="13.2001" y2="13.5" gradientUnits="userSpaceOnUse">
<stop stop-color="#98AF4E"/>
<stop offset="1" stop-color="#5A7735"/>
</linearGradient>
<linearGradient id="paint2_linear_94_4290" x1="2.18681" y1="10.0533" x2="7.65891" y2="12.2957" gradientUnits="userSpaceOnUse">
<stop stop-color="white" stop-opacity="0"/>
<stop offset="1" stop-color="white"/>
</linearGradient>
<linearGradient id="paint3_linear_94_4290" x1="11.1587" y1="7.76386" x2="10.7648" y2="13.7582" gradientUnits="userSpaceOnUse">
<stop stop-color="white" stop-opacity="0"/>
<stop offset="1" stop-color="white" stop-opacity="0.7"/>
</linearGradient>
<linearGradient id="paint4_linear_94_4290" x1="1.99978" y1="6.49995" x2="7.00012" y2="6.49995" gradientUnits="userSpaceOnUse">
<stop stop-color="white" stop-opacity="0.7"/>
<stop offset="1" stop-color="white" stop-opacity="0"/>
</linearGradient>
<linearGradient id="paint5_linear_94_4290" x1="9.75133" y1="8.61637" x2="8.50873" y2="3.6661" gradientUnits="userSpaceOnUse">
<stop stop-color="#F1F1F1"/>
<stop offset="1" stop-color="#FFFFF0"/>
</linearGradient>
<linearGradient id="paint6_linear_94_4290" x1="8.85197" y1="2.50532" x2="8.57875" y2="7.19551" gradientUnits="userSpaceOnUse">
<stop stop-color="#CFCFCF"/>
<stop offset="1" stop-color="#777777"/>
</linearGradient>
<linearGradient id="paint7_linear_94_4290" x1="9.75272" y1="12.704" x2="8.76539" y2="9.85104" gradientUnits="userSpaceOnUse">
<stop stop-color="white"/>
<stop offset="1" stop-color="#FFFFF0"/>
</linearGradient>
</defs>
</svg>
